<?xml version="1.0" encoding="utf-8"?>
<svg viewBox="0 0 202 202" width="202px" height="202px" xmlns="http://www.w3.org/2000/svg">
  <circle cx="100.634" cy="100.677" r="99.911" style="fill: rgb(255, 255, 255);"/>
  <g>
    <title>Layer 1</title>
    <path id="svg_2" d="m102.41583,108.57385c1.51451,1.73664 2.80175,3.20209 4.87232,5.55936c0,-12.23782 0.13092,-23.45407 -0.17545,-34.65836c-0.0359,-1.31323 -2.26182,-3.02765 -3.84178,-3.76892c-26.53514,-12.44922 -60.35774,-3.62765 -77.89255,20.0936c-11.47973,15.52991 -15.72107,32.75702 -12.53053,51.92895c-16.6051,-26.27835 -18.87816,-72.78787 8.25777,-107.92776c30.36302,-39.31888 80.76591,-47.81866 118.04878,-31.47079c-20.38411,9.96273 -26.25714,27.67355 -26.27783,48.47918c-0.02652,26.65503 0.10163,53.31064 -0.02474,79.96509c-0.13385,28.23129 -28.38283,46.07398 -52.46906,33.27261c-15.16329,-8.05892 -23.01365,-27.71377 -18.05836,-45.21243c5.05147,-17.83829 19.62671,-28.84369 37.1873,-27.78738c9.05701,0.54483 16.50157,4.71438 22.90413,11.52685z" fill="#56B6D5"/>
    <path id="svg_3" d="m200.05914,116.04645c-9.81056,60.76053 -66.70999,91.01712 -109.92329,83.89465c1.81279,-0.59946 2.75999,-0.94641 3.72642,-1.22729c29.45142,-8.55902 48.13102,-33.42621 48.1319,-64.08591c0.00041,-14.15393 0.00006,-28.30789 0.00006,-42.90042c5.66214,0 11.09273,0 16.85779,0c0,-9.021 0,-17.61261 0,-26.68823c-5.29883,0 -10.70637,0 -16.7142,0c-0.26046,-8.08759 -0.19725,-15.63379 2.8838,-22.79978c1.82311,-4.24026 5.52413,-5.98575 9.92877,-6.51221c1.8108,-0.21643 3.60674,-0.557 5.72484,-0.8908c0,-4.43998 0,-8.89795 0,-13.54963c23.40903,14.12061 46.02936,52.44684 39.38391,94.75962z" fill="#264159"/>
  </g>
</svg>